<?xml version="1.0" encoding="UTF-8" standalone="no"?>
<!DOCTYPE svg PUBLIC "-//W3C//DTD SVG 1.1//EN" "http://www.w3.org/Graphics/SVG/1.1/DTD/svg11.dtd">
<svg width="100%" height="100%" viewBox="0 0 256 256" version="1.1" xmlns="http://www.w3.org/2000/svg" xmlns:xlink="http://www.w3.org/1999/xlink" xml:space="preserve" xmlns:serif="http://www.serif.com/" style="fill-rule:evenodd;clip-rule:evenodd;stroke-linejoin:round;stroke-miterlimit:2;">
    <g transform="matrix(7.92447,0,0,10.7483,-18.5584,256)">
        <rect x="2.342" y="-23.818" width="7.175" height="23.818" style="fill:rgb(128,192,255);fill-rule:nonzero;"/>
        <path d="M26.558,0L24.781,-5.132C24.438,-6.14 23.992,-6.932 23.444,-7.507C22.896,-8.083 22.301,-8.371 21.658,-8.371L21.376,-8.371L21.376,0L14.201,0L14.201,-23.818L23.735,-23.818C27.068,-23.818 29.528,-23.272 31.117,-22.182C32.706,-21.091 33.501,-19.455 33.501,-17.274C33.501,-15.635 33.039,-14.262 32.114,-13.155C31.189,-12.047 29.814,-11.244 27.987,-10.746L27.987,-10.68C28.994,-10.37 29.833,-9.866 30.503,-9.168C31.173,-8.471 31.773,-7.435 32.305,-6.062L34.647,0L26.558,0ZM25.877,-16.26C25.877,-17.058 25.634,-17.689 25.146,-18.154C24.659,-18.619 23.895,-18.852 22.854,-18.852L21.376,-18.852L21.376,-13.404L22.672,-13.404C23.635,-13.404 24.41,-13.675 24.997,-14.218C25.584,-14.76 25.877,-15.441 25.877,-16.26Z" style="fill:rgb(128,192,255);fill-rule:nonzero;"/>
    </g>
</svg>
